<svg width="194" height="196" viewBox="0 0 194 196" fill="none" xmlns="http://www.w3.org/2000/svg">
<ellipse cx="97" cy="98" rx="97" ry="98" fill="#D7CACA"/>
<g clip-path="url(#clip0_435_296)">
<path d="M77 158C88.04 158 97 149.04 97 138V118H77C65.96 118 57 126.96 57 138C57 149.04 65.96 158 77 158Z" fill="#0ACF83"/>
<path d="M57 98C57 86.96 65.96 78 77 78H97V118H77C65.96 118 57 109.04 57 98Z" fill="#A259FF"/>
<path d="M57 58C57 46.96 65.96 38 77 38H97V78H77C65.96 78 57 69.04 57 58Z" fill="#F24E1E"/>
<path d="M97 38H117C128.04 38 137 46.96 137 58C137 69.04 128.04 78 117 78H97V38Z" fill="#FF7262"/>
<path d="M137 98C137 109.04 128.04 118 117 118C105.96 118 97 109.04 97 98C97 86.96 105.96 78 117 78C128.04 78 137 86.96 137 98Z" fill="#1ABCFE"/>
</g>
<defs>
<clipPath id="clip0_435_296">
<rect width="80" height="120" fill="white" transform="translate(57 38)"/>
</clipPath>
</defs>
</svg>
