<svg width="126" height="107" viewBox="0 0 126 107" fill="none" xmlns="http://www.w3.org/2000/svg">
<path d="M67.7485 41.2434C67.5544 39.108 66.6905 37.4482 65.1569 36.264C63.6427 35.0604 61.4782 34.4586 58.6633 34.4586C56.7997 34.4586 55.2466 34.7013 54.0042 35.1866C52.7618 35.6719 51.83 36.3417 51.2088 37.1958C50.5876 38.0306 50.2672 38.9915 50.2478 40.0787C50.209 40.9716 50.3837 41.7579 50.772 42.4373C51.1796 43.1168 51.762 43.7186 52.5191 44.2427C53.2956 44.7475 54.2275 45.194 55.3146 45.5822C56.4017 45.9705 57.6247 46.3102 58.9836 46.6014L64.1086 47.7662C67.0594 48.4068 69.6607 49.261 71.9126 50.3287C74.1839 51.3964 76.0864 52.6679 77.62 54.1433C79.173 55.6187 80.3475 57.3173 81.1434 59.2392C81.9394 61.161 82.347 63.3159 82.3664 65.7037C82.347 69.4698 81.3958 72.702 79.5127 75.4004C77.6297 78.0988 74.9216 80.1663 71.3885 81.6028C67.8747 83.0394 63.633 83.7576 58.6633 83.7576C53.6742 83.7576 49.3257 83.0102 45.6179 81.5154C41.91 80.0207 39.0272 77.7494 36.9694 74.7015C34.9117 71.6537 33.8536 67.8002 33.7954 63.1412H47.598C47.7144 65.063 48.2289 66.6646 49.1413 67.9458C50.0537 69.2271 51.3058 70.1977 52.8977 70.8578C54.509 71.5178 56.3726 71.8478 58.4886 71.8478C60.4299 71.8478 62.08 71.5858 63.4389 71.0616C64.8172 70.5375 65.8752 69.8095 66.6129 68.8777C67.3506 67.9458 67.7291 66.8781 67.7485 65.6745C67.7291 64.5486 67.3797 63.5877 66.7002 62.7917C66.0208 61.9764 64.9725 61.2775 63.5554 60.6951C62.1576 60.0933 60.3716 59.5401 58.1974 59.0353L51.9659 57.5794C46.802 56.3952 42.735 54.483 39.7649 51.8429C36.7947 49.1833 35.3193 45.5919 35.3387 41.0687C35.3193 37.3803 36.3094 34.148 38.3089 31.372C40.3084 28.5959 43.0748 26.4314 46.6079 24.8784C50.1411 23.3253 54.1692 22.5488 58.6924 22.5488C63.3127 22.5488 67.3215 23.335 70.7187 24.9075C74.1354 26.4605 76.7852 28.6445 78.6683 31.4593C80.5513 34.2742 81.5123 37.5356 81.5511 41.2434H67.7485Z" fill="#6C4D30"/>
<g filter="url(#filter0_d_410_322)">
<path d="M9 83V23H36.2856C36.2856 23 27.5227 34.2296 32 42.5C40.2704 57.777 80.7695 47.082 80.7695 47.082L85 29C85 29 99.8003 30.5683 105.5 37C113.788 46.3527 113.19 59.1497 105.5 69C100.018 76.0211 85 79 85 79L80.7695 58.8887C80.7695 58.8887 40.2782 50.7272 32 66C27.513 74.2782 36.2856 83 36.2856 83H9Z" fill="#A66E38"/>
</g>
<g filter="url(#filter1_i_410_322)">
<path d="M42.7602 107H0V0H42.6244C70.9502 0 95.3394 2.14209 115.792 6.42627C136.335 10.6756 97.8416 16.8058 108.973 24.8169C120.104 32.7931 125.67 42.3368 125.67 53.4478C125.67 64.5936 124.342 73.8657 112.67 81.9219C95.1697 94 139.5 101.5 115.792 104C92.0837 106.5 74 107 42.7602 107ZM7.19456 84.9521H40.181C55.7466 84.9521 68.914 83.9421 79.6833 81.9219C90.543 79.8669 98.733 76.5405 104.253 71.9429C109.864 67.3104 112.67 61.1453 112.67 53.4478C112.67 45.7502 109.864 39.62 104.253 35.0571C98.6425 30.4595 90.362 27.1506 79.4118 25.1304C68.552 23.0754 55.1584 22.0478 39.2308 22.0478H7.19456V84.9521Z" fill="#FFAD60"/>
</g>
<defs>
<filter id="filter0_d_410_322" x="5" y="23" width="110.494" height="68" filterUnits="userSpaceOnUse" color-interpolation-filters="sRGB">
<feFlood flood-opacity="0" result="BackgroundImageFix"/>
<feColorMatrix in="SourceAlpha" type="matrix" values="0 0 0 0 0 0 0 0 0 0 0 0 0 0 0 0 0 0 127 0" result="hardAlpha"/>
<feOffset dy="4"/>
<feGaussianBlur stdDeviation="2"/>
<feComposite in2="hardAlpha" operator="out"/>
<feColorMatrix type="matrix" values="0 0 0 0 0 0 0 0 0 0 0 0 0 0 0 0 0 0 0.25 0"/>
<feBlend mode="normal" in2="BackgroundImageFix" result="effect1_dropShadow_410_322"/>
<feBlend mode="normal" in="SourceGraphic" in2="effect1_dropShadow_410_322" result="shape"/>
</filter>
<filter id="filter1_i_410_322" x="0" y="0" width="128.67" height="110" filterUnits="userSpaceOnUse" color-interpolation-filters="sRGB">
<feFlood flood-opacity="0" result="BackgroundImageFix"/>
<feBlend mode="normal" in="SourceGraphic" in2="BackgroundImageFix" result="shape"/>
<feColorMatrix in="SourceAlpha" type="matrix" values="0 0 0 0 0 0 0 0 0 0 0 0 0 0 0 0 0 0 127 0" result="hardAlpha"/>
<feOffset dx="3" dy="3"/>
<feGaussianBlur stdDeviation="2"/>
<feComposite in2="hardAlpha" operator="arithmetic" k2="-1" k3="1"/>
<feColorMatrix type="matrix" values="0 0 0 0 0 0 0 0 0 0 0 0 0 0 0 0 0 0 0.25 0"/>
<feBlend mode="normal" in2="shape" result="effect1_innerShadow_410_322"/>
</filter>
</defs>
</svg>
