<svg width="196" height="196" viewBox="0 0 196 196" fill="none" xmlns="http://www.w3.org/2000/svg">
<circle cx="98" cy="98" r="98" fill="#D7CACA"/>
<g clip-path="url(#clip0_435_304)">
<path d="M139.48 38H57.4C46.1334 38 37 47.1334 37 58.4V137.408C37 148.675 46.1334 157.808 57.4 157.808H139.48C150.747 157.808 159.88 148.675 159.88 137.408V58.4C159.88 47.1334 150.747 38 139.48 38Z" fill="#470137"/>
<path d="M101.597 69.5072L86.2643 94.8142L102.668 121.687C102.774 121.875 102.803 122.096 102.751 122.305C102.725 122.395 102.671 122.417 102.587 122.42L102.494 122.419L102.38 122.416C102.319 122.416 102.25 122.419 102.174 122.431H90.3467L90.1144 122.427C89.477 122.41 89.0176 122.319 88.7378 121.852C87.6434 119.72 86.5442 117.59 85.4402 115.463C84.4526 113.566 83.4381 111.683 82.397 109.815L81.9371 108.992C80.6919 106.779 79.4691 104.554 78.269 102.316H78.1864C77.0781 104.53 75.9377 106.729 74.7654 108.91C73.583 111.108 72.4152 113.293 71.2619 115.463C70.1078 117.635 68.9263 119.792 67.7176 121.934C67.5232 122.371 67.2002 122.462 66.7504 122.477L66.5632 122.48H55.2702L55.2213 122.481L55.06 122.496C54.9702 122.501 54.9165 122.482 54.8992 122.347C54.8685 122.146 54.9125 121.94 55.023 121.77L70.9322 95.6384L55.4349 69.4256C55.2704 69.2067 55.2429 69.0281 55.3523 68.8899C55.4132 68.8195 55.4895 68.7642 55.5754 68.7283C55.6613 68.6925 55.7544 68.6772 55.8472 68.6835H67.4699C67.7234 68.6698 67.9767 68.712 68.212 68.8073C68.4088 68.9192 68.5782 69.0742 68.7064 69.2609C69.6955 71.4593 70.7947 73.6574 72.004 75.8552C73.2038 78.0387 74.4265 80.2096 75.6722 82.3673C76.8987 84.4917 78.0399 86.6641 79.0931 88.8795H79.1757C80.255 86.6646 81.368 84.4663 82.5141 82.2852C83.6398 80.1419 84.7938 77.9848 85.9758 75.8139C87.1426 73.6712 88.283 71.5142 89.3968 69.3435C89.4602 69.14 89.5734 68.9556 89.7266 68.8073C89.9301 68.7042 90.1589 68.6612 90.3861 68.6835H101.185C101.284 68.6587 101.389 68.6669 101.483 68.7067C101.577 68.7466 101.656 68.8159 101.707 68.9044C101.759 68.9928 101.78 69.0956 101.768 69.1972C101.756 69.2988 101.711 69.3938 101.641 69.4678L101.597 69.5072ZM125.823 123.494L125.254 123.5C121.46 123.558 117.701 122.77 114.249 121.193C111.034 119.705 108.347 117.276 106.542 114.227C104.722 111.204 103.788 107.439 103.741 102.93L103.739 102.563C103.708 98.7795 104.675 95.0549 106.542 91.7643C108.411 88.5074 111.135 85.824 114.42 84.0046L114.703 83.851C118.274 81.8724 122.588 80.8832 127.645 80.8832L127.865 80.8856L128.118 80.8937L128.401 80.9062L128.716 80.9244L129.245 80.9619L129.844 81.0099L130.282 81.0483V64.8089C130.282 64.4246 130.447 64.2323 130.777 64.232H141.163C141.231 64.2223 141.299 64.2285 141.363 64.2499C141.428 64.2714 141.486 64.3075 141.534 64.3555C141.582 64.4035 141.618 64.462 141.64 64.5263C141.661 64.5907 141.667 64.6592 141.658 64.7264V113.444C141.658 114.262 141.689 115.143 141.753 116.086L141.906 118.224L141.988 119.461C141.998 119.633 141.956 119.803 141.868 119.95C141.78 120.097 141.649 120.214 141.493 120.286C138.814 121.403 136.023 122.232 133.168 122.758C130.744 123.206 128.287 123.452 125.823 123.494ZM130.282 113.279V90.775C129.837 90.6543 129.382 90.5716 128.922 90.5278C128.361 90.4711 127.797 90.4435 127.232 90.4452C125.232 90.4251 123.255 90.877 121.462 91.7643C119.716 92.6329 118.225 93.9394 117.135 95.5563C116.046 97.148 115.484 99.2264 115.446 101.791L115.444 102.068C115.405 103.865 115.698 105.654 116.31 107.344C116.808 108.705 117.596 109.943 118.619 110.971C119.597 111.917 120.782 112.622 122.08 113.032C123.452 113.475 124.884 113.698 126.326 113.692C127.095 113.692 127.809 113.664 128.469 113.609C128.995 113.569 129.517 113.482 130.028 113.349L130.282 113.279Z" fill="#FF61F6"/>
</g>
<defs>
<clipPath id="clip0_435_304">
<rect width="122.88" height="120" fill="white" transform="translate(37 38)"/>
</clipPath>
</defs>
</svg>
